<?xml version="1.0" encoding="UTF-8"?>
<svg width="1440px" height="1012px" viewBox="0 0 1440 1012" version="1.1" xmlns="http://www.w3.org/2000/svg" xmlns:xlink="http://www.w3.org/1999/xlink">
    <!-- Generator: Sketch 55.2 (78181) - https://sketchapp.com -->
    <title>画板</title>
    <desc>Created with Sketch.</desc>
    <g id="画板" stroke="none" stroke-width="1" fill="none" fill-rule="evenodd">
        <rect id="矩形" fill-opacity="0.5" fill="#627100" transform="translate(679.410209, 493.089791) rotate(-45.000000) translate(-679.410209, -493.089791) " x="-168.089791" y="379.089791" width="1695" height="228"></rect>
        <rect id="矩形备份-5" fill-opacity="0.3" fill="#627100" transform="translate(1039.347457, 472.937248) rotate(-45.000000) translate(-1039.347457, -472.937248) " x="191.847457" y="444.437248" width="1695" height="57"></rect>
        <rect id="矩形备份-3" fill-opacity="0.5" fill="#627100" transform="translate(969.378680, 416.121320) rotate(-315.000000) translate(-969.378680, -416.121320) " x="121.87868" y="266.12132" width="1695" height="300"></rect>
        <rect id="矩形备份-6" fill-opacity="0.4" fill="#A2AE44" transform="translate(800.500000, 505.000000) rotate(-315.000000) translate(-800.500000, -505.000000) " x="-47" y="472" width="1695" height="66"></rect>
        <rect id="矩形备份-10" fill-opacity="0.3" fill="#627100" transform="translate(425.500000, 506.000000) rotate(-315.000000) translate(-425.500000, -506.000000) " x="-422" y="473" width="1695" height="66"></rect>
        <rect id="矩形备份-9" fill-opacity="0.4" fill="#A2AE44" transform="translate(544.500000, 516.000000) rotate(-315.000000) translate(-544.500000, -516.000000) " x="-303" y="472" width="1695" height="88"></rect>
        <rect id="矩形备份-7" fill-opacity="0.4" fill="#A2AE44" transform="translate(1298.500000, 487.000000) rotate(-315.000000) translate(-1298.500000, -487.000000) " x="451" y="454" width="1695" height="66"></rect>
        <rect id="矩形备份-4" fill-opacity="0.5" fill="#424B00" transform="translate(1389.573593, 37.573593) rotate(-315.000000) translate(-1389.573593, -37.573593) " x="1158.57359" y="-112.426407" width="462" height="300"></rect>
        <rect id="矩形备份-8" fill-opacity="0.3" fill="#A2AE44" transform="translate(162.993164, 840.006836) rotate(-315.000000) translate(-162.993164, -840.006836) " x="-363.006836" y="599.506836" width="1052" height="481"></rect>
        <rect id="矩形备份-2" fill-opacity="0.5" fill="#627100" transform="translate(182.500000, 219.000000) rotate(-45.000000) translate(-182.500000, -219.000000) " x="-241" y="105" width="847" height="228"></rect>
        <rect id="矩形备份" fill-opacity="0.5" fill="#627100" transform="translate(1277.000000, 853.000000) rotate(-45.000000) translate(-1277.000000, -853.000000) " x="692" y="622" width="1170" height="462"></rect>
    </g>
</svg>